<svg id="Calque_1" data-name="Calque 1" xmlns="http://www.w3.org/2000/svg" viewBox="0 0 166 446.09"><defs><style>.cls-1{fill:#646464;}.cls-2{fill:#fe654f;}</style></defs><path class="cls-1" d="M282.59,296A42.45,42.45,0,0,1,325,338.41V498H192.71a5.71,5.71,0,0,1-5.71-5.71V296h95.59m0-14H173V492.29A19.72,19.72,0,0,0,192.71,512H339V338.41A56.4,56.4,0,0,0,282.59,282Z" transform="translate(-173 -65.91)"/><path class="cls-2" d="M272.47,70.11a146.73,146.73,0,0,0-15.64,2,146.43,146.43,0,0,0-15.4,3,75.1,75.1,0,0,0-13.89,5.73A101.27,101.27,0,0,0,211,91.56a70.92,70.92,0,0,0-13.87,15.06,70.66,70.66,0,0,0-9.23,17.18,50.07,50.07,0,0,0-2.72,17.12,99.07,99.07,0,0,0,2.47,20.44,83,83,0,0,0,6.85,19.88c2.66,5.2,6.23,9.95,9.59,14.7a22.08,22.08,0,0,1,2.28,3.75l-.76-1.79a14.31,14.31,0,0,1,.87,3.2l-.27-2a18.16,18.16,0,0,1-.06,4.48l.27-2c-.74,5.17-2.81,10.16-4.54,15.06s-4,9.8-5,15a29.53,29.53,0,0,0-.7,8.89,30.29,30.29,0,0,0,2.71,9.73c2.32,5.13,6.35,9.22,10.76,12.59,9.4,7.19,21.52,9,32.94,10.33,11.87,1.41,23.79,1.76,35.38-1.66a68.34,68.34,0,0,0,46.32-45.94c6.61-21.27,3.1-44.29-6.81-63.93a114.36,114.36,0,0,0-18.53-26.14c-3.22-3.46-6.67-6.7-10-10.08-1.66-1.69-3.28-3.41-4.82-5.21-.7-.81-1.36-1.65-2-2.48,1.65,2,.16.18-.17-.28s-.7-1-1-1.52a36.17,36.17,0,0,1-3.09-5.75l.75,1.79a28.33,28.33,0,0,1-1.83-6.58l.27,2a25.3,25.3,0,0,1,0-6.62l-.27,2a27.68,27.68,0,0,1,1.86-6.61l-.75,1.8a33.17,33.17,0,0,1,3.45-6.08l.55-.75c.52-.73-1.06,1.32-.48.63.4-.49.79-1,1.21-1.45.79-.91,1.62-1.79,2.49-2.63s1.68-1.59,2.56-2.34l1.49-1.22c.85-.7-.61.42-.61.46a5.14,5.14,0,0,1,.77-.58,64.06,64.06,0,0,1,6.25-4,7.51,7.51,0,0,0,3.07-9.36c-1.37-3.25-5.29-5.56-8.85-4.34-2.32.79-4.68,1.44-7.05,2.08a56.2,56.2,0,0,1-6.53,1.52l2-.26c-1.87.24-3.79.39-5.67.53a8,8,0,0,0-5.31,2.19A7.6,7.6,0,0,0,265,77.61c.17,3.81,3.31,7.8,7.5,7.5a71.24,71.24,0,0,0,10.2-1.26,106.17,106.17,0,0,0,11.05-3.15L287.94,67A60.07,60.07,0,0,0,268,84.75a33.89,33.89,0,0,0-5.42,26.41c1.81,8.52,7.33,15.82,13.11,22.08,5.6,6,11.77,11.52,17,17.87.4.49.8,1,1.19,1.46l.52.65.18.23c-.69-.9-.22-.29-.07-.09l.75,1c.33.44.66.89,1,1.34,1.42,2,2.78,4,4.06,6.07a97.89,97.89,0,0,1,6.79,13.1l-.76-1.8a83.82,83.82,0,0,1,5.89,21.17l-.26-2a76.8,76.8,0,0,1,0,20l.26-2a68.73,68.73,0,0,1-4.61,17.19l.76-1.79A61.92,61.92,0,0,1,303,235.88c-.51.78-1.05,1.54-1.59,2.28-.35.47-1.51,1.63,0,0-.29.31-.53.67-.8,1q-1.9,2.32-4,4.45c-1.37,1.36-2.79,2.66-4.28,3.89-.38.31-.8.6-1.16.93,1.58-1.46.63-.49.18-.15-.78.58-1.59,1.15-2.4,1.69a62.65,62.65,0,0,1-10.37,5.56l1.79-.76a63.19,63.19,0,0,1-15.38,4.2l2-.27c-9.37,1.24-18.86.22-28.17-1l2,.26a70,70,0,0,1-17.46-4.27l1.8.75a36.82,36.82,0,0,1-5.08-2.6c-.75-.47-1.47-1-2.19-1.49-1.05-.74,1.53,1.27,0,0q-.51-.42-1-.87c-.65-.59-1.28-1.21-1.87-1.86-.29-.32-.58-.65-.86-1-.16-.19-.32-.38-.47-.58.75,1,1,1.24.61.78a27.45,27.45,0,0,1-2.65-4.66l.75,1.79a21.45,21.45,0,0,1-1.41-5l.27,2a21.44,21.44,0,0,1,0-5.25l-.27,2c.67-4.9,2.54-9.51,4.28-14.1s3.5-9.32,4.8-14.08c1.59-5.88,1.78-11.75-.75-17.37a28.3,28.3,0,0,0-3-4.75q-1.73-2.44-3.41-4.9a66.7,66.7,0,0,1-6.63-11.34l.76,1.8a95.65,95.65,0,0,1-6.39-24.2l.27,2a63.35,63.35,0,0,1-.36-16.39l-.27,2a42.89,42.89,0,0,1,3-10.89l-.75,1.79a62.12,62.12,0,0,1,5.25-9.65c1.16-1.79,2.39-3.53,3.65-5.24l.9-1.2c.19-.25.81-1.05.05-.07s-.29.37-.13.18c.62-.77,1.26-1.53,1.93-2.26a53.38,53.38,0,0,1,4.08-4c.68-.61,1.37-1.2,2.08-1.78l1.13-.92c.39-.3,1.11-.81-.65.5l.59-.44A90.69,90.69,0,0,1,231,96.08a97.75,97.75,0,0,1,10.1-5l-1.79.76a62.33,62.33,0,0,1,12.12-3.53q8.45-1.67,17-2.81l-2,.27c2-.27,4.05-.54,6.09-.65,3.91-.22,7.68-3.3,7.5-7.5C279.79,73.73,276.66,69.87,272.47,70.11Z" transform="translate(-173 -65.91)"/></svg>